<svg width="1080" height="1080" viewBox="0 0 1080 1080" fill="none" xmlns="http://www.w3.org/2000/svg">
<path d="M505.273 720.698C500.096 731.47 495.45 748.751 501.854 745.364C508.827 741.676 507.802 727.068 505.273 720.698Z" fill="#282300"/>
<path d="M498.252 726.609C511.752 645.112 520.254 530.343 508.935 727.3" stroke="#282300" stroke-width="2.21321" stroke-linecap="round"/>
<path d="M395.804 676.91C461.598 622.175 553.993 549.235 388.551 666.944" stroke="#282300" stroke-width="2.21321" stroke-linecap="round"/>
<path d="M551.713 869.811C528.18 868.561 526.722 855.873 526.763 841.089" stroke="#282300" stroke-width="8.31597"/>
<path d="M824.73 570C824.833 736.985 691.967 872.25 528.194 872.351C364.421 872.452 231.389 737.351 231.286 570.366C231.183 403.38 364.048 268.116 527.821 268.015C691.594 267.914 824.627 403.014 824.73 570Z" stroke="#282300" stroke-width="12.1916"/>
<path d="M251.682 574.181C255.045 502.025 283.453 433.437 331.836 380.627C380.217 327.818 445.43 294.213 515.86 285.779" stroke="#282300" stroke-width="6.53563"/>
<path d="M225.192 573.06L830.417 572.669" stroke="#282300" stroke-width="13.9332"/>
<path d="M525.443 271.568L524.068 867.215" stroke="#282300" stroke-width="13.9332"/>
<path d="M536.183 578.893C620.083 620.778 835.076 645.522 721.466 751.428C626.754 839.717 648.488 756.919 536.183 578.893Z" stroke="#282300" stroke-width="7.62491"/>
<path d="M733.936 660.467C767.711 672.972 782.574 664.429 789.056 578.372" stroke="#282300" stroke-width="7.62491"/>
<path d="M636.512 767.821C649.6 795.045 636.019 833.623 530.575 828.896" stroke="#282300" stroke-width="7.62491"/>
<path d="M486.118 411.734C496.707 399.043 502.433 375.892 484.404 376.24C464.771 376.619 475.174 399.966 486.118 411.734Z" fill="#282300"/>
<path d="M346.906 511.521C337.382 498.013 316.496 486.499 312.174 504.006C307.467 523.07 332.709 519.053 346.906 511.521Z" fill="#282300"/>
<path d="M358.839 489.434C356.279 473.105 342.648 453.536 331.023 467.32C318.363 482.332 342.775 489.903 358.839 489.434Z" fill="#282300"/>
<path d="M444.988 421.306C452.358 406.512 452.579 382.663 435.118 387.169C416.104 392.075 431.621 412.385 444.988 421.306Z" fill="#282300"/>
<path d="M382.202 461.353C380.988 444.869 369.004 424.249 356.29 437.035C342.444 450.96 366.154 460.505 382.202 461.353Z" fill="#282300"/>
<path d="M410.734 438.51C412.029 422.032 403.305 399.836 388.801 410.551C373.007 422.219 394.999 435.242 410.734 438.51Z" fill="#282300"/>
<path d="M487.185 716.874C480.874 727.022 474.387 743.7 481.119 741.026C488.45 738.113 489.01 723.48 487.185 716.874Z" fill="#282300"/>
<path d="M400.345 666.934C388.879 670.302 372.933 678.424 379.736 680.912C387.145 683.621 397.307 673.078 400.345 666.934Z" fill="#282300"/>
<path d="M383.344 650.573C371.465 651.878 354.342 657.077 360.604 660.72C367.422 664.686 379.276 656.089 383.344 650.573Z" fill="#282300"/>
<path d="M357.213 589.45C345.472 587.221 327.577 587.18 332.498 592.496C337.857 598.285 351.708 593.534 357.213 589.45Z" fill="#282300"/>
<path d="M361.9 605.839C349.954 606.184 332.468 609.99 338.417 614.124C344.895 618.626 357.402 611.01 361.9 605.839Z" fill="#282300"/>
<path d="M370.714 628.628C358.763 628.604 341.168 631.867 346.986 636.183C353.322 640.884 366.058 633.657 370.714 628.628Z" fill="#282300"/>
<path d="M465.45 711.696C457.325 720.46 447.785 735.6 454.903 734.254C462.655 732.788 465.986 718.529 465.45 711.696Z" fill="#282300"/>
<path d="M440.311 702.62C430.463 709.39 417.836 722.071 425.076 722.318C432.96 722.587 439.337 709.404 440.311 702.62Z" fill="#282300"/>
<path d="M417.828 681.702C407.468 687.661 393.867 699.289 401.063 700.116C408.9 701.015 416.313 688.386 417.828 681.702Z" fill="#282300"/>
<path d="M549.65 511.892C548.01 510.657 545.682 511.947 545.859 513.992L547.589 533.887C547.774 536.017 547.749 538.159 547.516 540.284L546.027 553.839C545.708 556.742 547.982 559.278 550.903 559.276L573.379 559.262C577.471 559.26 580.498 555.453 579.577 551.465C576.506 538.155 568.842 526.354 557.933 518.134L549.65 511.892Z" fill="#282300"/>
<path d="M552.997 465.598L561.309 470.611C591.254 488.671 612.926 517.751 621.674 551.608V551.608" stroke="#282300" stroke-width="8.71418" stroke-linecap="round"/>
<path d="M551.923 489.563L557.464 492.905C577.427 504.945 591.875 524.331 597.708 546.903V546.903" stroke="#282300" stroke-width="6.53563" stroke-linecap="round"/>
<path d="M479.566 721.993C501.797 642.433 522.656 529.255 490.112 723.835" stroke="#282300" stroke-width="2.21321" stroke-linecap="round"/>
<path d="M457.531 715.646C491.402 640.301 528.939 531.511 467.683 719.043" stroke="#282300" stroke-width="2.21321" stroke-linecap="round"/>
<path d="M355.107 585.131C442.212 585.409 563.231 575.536 356.06 595.674" stroke="#282300" stroke-width="1.9461" stroke-linecap="round"/>
<path d="M363.572 609.152C444.024 591.582 557.63 573.214 362.574 602.75" stroke="#282300" stroke-width="2.21321" stroke-linecap="round"/>
<path d="M370.37 632.893C445.875 599.33 554.903 562.492 366.957 622.466" stroke="#282300" stroke-width="2.21321" stroke-linecap="round"/>
<path d="M383.756 660.528C455.506 613.624 556.227 552.563 376.01 646.113" stroke="#282300" stroke-width="2.21321" stroke-linecap="round"/>
<path d="M416.906 695.876C471.79 630.028 550.232 542.165 405.281 684.359" stroke="#282300" stroke-width="2.21321" stroke-linecap="round"/>
<path d="M440.475 710.736C481.903 635.925 540.977 534.146 432.253 705.62" stroke="#282300" stroke-width="2.21321" stroke-linecap="round"/>
<path fill-rule="evenodd" clip-rule="evenodd" d="M478.751 184.603L515.514 277.475L535.158 267.494L526.161 229.117C521.118 207.606 504.384 190.773 482.904 185.602L478.751 184.603ZM514.517 216.721C514.669 216.949 514.372 217.208 514.167 217.026L483.792 190.116L484.507 190.034C491.495 189.233 498.343 192.413 502.24 198.269L514.517 216.721Z" fill="#282300"/>
<path d="M521.286 547.457C520.908 567.391 510.222 568.99 497.721 569.381" stroke="#282300" stroke-width="7.0354"/>
<path d="M821.539 548.308C821.16 568.242 810.475 569.841 797.973 570.233" stroke="#282300" stroke-width="7.0354"/>
<path d="M521.522 843.373C521.074 866.936 508.443 868.826 493.667 869.289" stroke="#282300" stroke-width="8.31597"/>
<path d="M491.223 271.966C516.82 270.317 521.185 283.93 522.83 302.446" stroke="#282300" stroke-width="8.87896"/>
<path d="M548.623 569.622C528.738 568.173 527.715 557.417 527.996 544.913" stroke="#282300" stroke-width="7.0354"/>
<path d="M255.07 571.638C235.185 570.19 234.162 559.433 234.443 546.929" stroke="#282300" stroke-width="7.0354"/>
<path d="M528.255 596.66C529.388 576.755 540.126 575.562 552.633 575.643" stroke="#282300" stroke-width="7.0354"/>
<path d="M234.786 597.712C235.919 577.806 246.657 576.613 259.165 576.695" stroke="#282300" stroke-width="7.0354"/>
<path d="M528.07 297.691C529.477 272.713 542.803 271.214 558.323 271.316" stroke="#282300" stroke-width="8.60849"/>
<path d="M499.276 575.847C519.213 575.715 521.085 586.356 521.797 598.843" stroke="#282300" stroke-width="7.0354"/>
<path d="M799.07 576.509C819.007 576.377 820.879 587.019 821.591 599.506" stroke="#282300" stroke-width="7.0354"/>
<path d="M527.32 340.347V340.347C563.392 293.953 628.351 281.651 678.89 311.643L697.024 322.405" stroke="#282300" stroke-width="9.80345"/>
</svg>
